<svg id="svg" version="1.1" xmlns="http://www.w3.org/2000/svg" xmlns:xlink="http://www.w3.org/1999/xlink" width="400" height="400" viewBox="0, 0, 400,400"><g id="svgg"><path id="path0" d="M192.923 68.296 C 188.908 68.579,180.841 69.520,180.629 69.731 C 180.551 69.808,183.194 72.577,186.501 75.884 L 192.514 81.897 200.113 81.909 L 207.711 81.921 213.693 75.967 C 216.984 72.693,219.576 69.914,219.453 69.792 C 218.528 68.870,199.782 67.813,192.923 68.296 M176.855 70.330 C 151.776 75.325,130.138 87.479,111.732 106.909 L 109.464 109.303 114.347 114.267 L 119.231 119.231 114.283 114.363 L 109.335 109.496 107.514 111.748 C 106.513 112.987,105.608 114.069,105.503 114.154 C 104.770 114.747,98.700 123.766,96.298 127.834 C 85.472 146.162,78.837 172.327,80.146 191.531 L 80.361 194.677 84.182 198.489 L 88.003 202.301 90.921 199.381 L 93.839 196.462 93.950 187.385 C 94.467 145.173,118.768 107.677,156.268 91.226 C 158.067 90.437,159.983 89.592,160.527 89.348 C 166.730 86.566,179.671 83.403,188.868 82.421 L 192.351 82.049 186.255 75.947 C 182.131 71.820,179.960 69.858,179.541 69.882 C 179.201 69.902,177.992 70.103,176.855 70.330 M214.046 75.972 L 207.939 82.085 210.200 82.293 C 263.953 87.229,305.001 131.851,306.063 186.504 L 306.228 195.007 309.575 198.345 L 312.923 201.682 316.281 198.334 L 319.639 194.986 319.861 191.739 C 321.571 166.640,311.194 135.071,294.308 114.006 C 292.954 112.316,291.680 110.724,291.477 110.467 C 291.164 110.071,290.419 110.676,286.554 114.462 L 282.000 118.923 286.438 114.404 L 290.877 109.885 289.471 108.250 C 275.901 92.474,254.682 78.999,234.020 73.035 C 229.308 71.676,221.284 69.813,220.308 69.852 C 220.223 69.856,217.405 72.610,214.046 75.972 M189.692 122.009 C 173.362 124.425,167.580 125.275,162.769 125.969 L 158.000 126.656 156.538 128.060 C 154.977 129.561,154.824 129.945,155.516 130.637 C 156.203 131.324,156.647 131.174,158.066 129.781 C 159.323 128.548,159.412 128.511,159.924 129.023 C 160.259 129.358,160.346 129.646,160.154 129.788 C 159.985 129.913,159.324 130.575,158.685 131.259 L 157.523 132.503 160.223 132.116 C 163.024 131.715,165.101 131.413,181.077 129.080 C 186.323 128.314,192.738 127.384,195.332 127.013 L 200.049 126.339 204.717 127.007 C 207.284 127.374,215.131 128.514,222.154 129.541 C 229.177 130.567,236.584 131.647,238.614 131.941 L 242.304 132.476 242.921 136.862 L 243.538 141.248 246.058 138.701 L 248.577 136.154 248.026 131.917 C 247.723 129.587,247.413 127.618,247.336 127.541 C 247.219 127.424,240.191 126.369,224.769 124.156 C 223.077 123.913,216.915 123.018,211.077 122.167 C 198.610 120.350,200.794 120.366,189.692 122.009 M153.472 127.296 C 152.599 127.429,152.596 127.437,152.189 130.542 C 152.058 131.546,152.172 131.831,153.058 132.696 C 153.618 133.244,154.176 134.145,154.295 134.699 C 154.496 135.626,155.872 136.615,156.961 136.615 C 158.032 136.615,157.112 134.501,155.229 132.635 C 152.963 130.388,152.800 129.756,154.145 128.436 C 154.648 127.942,155.064 127.435,155.068 127.308 C 155.077 127.073,154.947 127.072,153.472 127.296 M151.692 134.232 C 151.692 134.485,151.602 135.160,151.491 135.731 L 151.291 136.769 151.953 136.183 C 152.727 135.499,152.806 134.695,152.154 134.154 C 151.779 133.842,151.692 133.857,151.692 134.232 M152.646 137.967 L 151.955 138.703 153.084 139.833 C 154.177 140.925,154.196 140.982,153.668 141.566 C 153.129 142.161,153.110 142.157,152.162 141.238 C 150.823 139.941,150.679 140.049,150.925 142.171 C 151.091 143.600,151.037 144.156,150.693 144.556 C 150.222 145.104,150.148 145.558,148.457 158.308 C 147.873 162.708,147.116 168.307,146.775 170.750 C 145.894 177.049,145.806 229.930,146.672 232.610 C 147.270 234.462,149.174 236.602,150.974 237.447 C 152.516 238.170,246.171 238.322,248.535 237.605 C 250.396 237.040,252.656 234.691,253.323 232.627 C 254.063 230.334,254.118 177.280,253.385 171.846 C 253.134 169.985,252.671 166.544,252.356 164.201 L 251.783 159.940 248.475 156.662 L 245.168 153.385 245.343 154.769 C 245.715 157.727,246.820 165.892,247.396 169.948 C 247.728 172.288,248.000 175.507,248.000 177.102 L 248.000 180.000 234.229 180.000 L 220.458 180.000 210.540 189.923 L 200.623 199.846 205.368 204.561 C 208.364 207.538,210.319 209.255,210.672 209.218 C 210.979 209.186,213.135 209.176,215.462 209.195 L 219.692 209.231 219.692 210.462 L 219.692 211.692 216.077 211.696 L 212.462 211.700 213.946 213.129 L 215.430 214.558 217.561 214.489 L 219.692 214.420 219.692 215.826 C 219.692 217.143,219.641 217.231,218.871 217.231 C 218.162 217.231,219.082 218.269,225.563 224.785 C 229.696 228.940,233.143 232.436,233.223 232.554 C 233.539 233.019,229.210 228.791,223.597 223.154 L 217.699 217.231 200.452 217.231 L 183.205 217.231 181.846 218.615 C 180.746 219.736,180.602 220.001,181.090 220.005 C 181.421 220.007,190.242 220.005,200.692 220.000 L 219.692 219.991 219.692 221.380 L 219.692 222.769 200.000 222.769 L 180.308 222.769 180.308 221.464 L 180.308 220.159 173.000 227.387 C 166.548 233.768,166.701 233.597,174.306 225.923 L 182.919 217.231 181.613 217.231 L 180.308 217.231 180.308 215.846 L 180.308 214.462 183.013 214.462 L 185.718 214.462 187.077 213.077 L 188.436 211.692 184.372 211.692 L 180.308 211.692 180.308 210.462 L 180.308 209.231 185.154 209.207 C 187.819 209.194,190.267 209.134,190.592 209.073 C 190.918 209.012,193.234 206.915,195.740 204.414 L 200.295 199.866 190.378 189.939 L 180.462 180.011 166.231 180.006 L 152.000 180.000 152.000 177.194 C 152.000 175.650,152.268 172.500,152.596 170.194 C 152.924 167.887,153.478 163.854,153.827 161.231 C 155.292 150.223,156.625 140.399,156.771 139.524 C 157.051 137.845,153.884 136.650,152.646 137.967 M246.538 140.094 C 244.046 142.666,243.994 142.851,245.100 145.227 C 245.878 146.899,245.881 146.934,245.386 148.697 C 244.731 151.033,244.734 151.041,248.332 154.615 L 251.428 157.692 251.204 155.692 C 251.081 154.592,250.483 150.115,249.875 145.743 L 248.769 137.793 246.538 140.094 M190.636 189.839 L 200.462 199.677 210.231 189.917 C 215.604 184.549,220.000 180.122,220.000 180.079 C 220.000 180.035,211.182 180.000,200.405 180.000 L 180.810 180.000 190.636 189.839 M80.464 197.385 C 80.743 201.139,81.590 207.818,81.818 208.072 C 81.930 208.197,83.330 206.984,84.930 205.378 L 87.838 202.457 84.059 198.690 L 80.280 194.923 80.464 197.385 M305.592 199.433 C 305.380 201.660,304.927 204.926,304.587 206.692 C 304.246 208.457,304.010 210.029,304.062 210.185 C 304.113 210.340,306.092 208.528,308.458 206.158 L 312.760 201.848 309.539 198.616 C 307.768 196.839,306.242 195.385,306.148 195.385 C 306.055 195.385,305.804 197.207,305.592 199.433 M316.308 198.615 L 313.089 201.845 315.682 204.451 C 317.108 205.885,318.317 207.016,318.369 206.965 C 318.654 206.679,319.885 195.385,319.631 195.385 C 319.574 195.385,318.079 196.838,316.308 198.615 M91.081 199.535 L 88.165 202.463 91.990 206.298 C 96.377 210.695,96.215 210.642,95.583 207.481 C 95.318 206.159,94.880 203.277,94.609 201.077 C 94.338 198.877,94.089 196.971,94.057 196.842 C 94.024 196.712,92.685 197.924,91.081 199.535 M196.065 204.396 C 193.660 206.805,191.692 208.879,191.692 209.004 C 191.692 209.129,195.638 209.231,200.462 209.231 C 205.285 209.231,209.229 209.127,209.227 209.000 C 209.224 208.873,207.246 206.800,204.830 204.392 L 200.439 200.015 196.065 204.396 M308.256 206.692 L 303.749 211.231 302.519 215.848 C 295.650 241.629,276.505 266.996,254.769 279.121 C 254.177 279.451,252.723 280.272,251.538 280.944 C 245.259 284.510,236.502 288.104,228.676 290.328 L 223.846 291.701 215.935 299.606 C 211.584 303.953,208.077 307.564,208.142 307.629 C 208.550 308.037,219.843 306.465,225.692 305.187 C 250.583 299.747,273.290 286.332,290.201 267.077 C 304.094 251.258,313.372 232.397,317.674 211.231 L 318.424 207.538 315.757 204.846 C 314.290 203.365,313.016 202.154,312.926 202.154 C 312.835 202.154,310.734 204.196,308.256 206.692 M84.834 205.781 L 81.833 208.793 82.441 211.748 C 88.353 240.478,103.663 265.028,126.923 283.073 C 130.136 285.565,136.725 290.154,137.092 290.154 C 137.162 290.154,137.969 290.634,138.886 291.220 C 152.441 299.891,177.627 307.658,192.294 307.689 L 193.665 307.692 186.218 300.231 C 179.370 293.369,178.205 292.169,178.604 292.385 C 178.682 292.427,182.281 295.973,186.602 300.266 L 194.458 308.070 200.924 307.953 L 207.390 307.836 215.376 299.855 C 219.768 295.465,223.313 291.825,223.253 291.766 C 223.194 291.706,222.334 291.865,221.342 292.118 C 211.838 294.542,192.462 294.781,181.077 292.615 C 180.231 292.454,179.192 292.263,178.769 292.191 C 177.664 292.002,171.962 290.536,169.077 289.699 C 165.673 288.711,160.214 286.674,157.000 285.192 C 155.519 284.510,153.743 283.693,153.054 283.377 C 126.564 271.246,103.797 242.864,96.783 213.231 L 96.237 210.923 92.200 206.846 C 89.979 204.604,88.089 202.769,87.999 202.769 C 87.908 202.769,86.484 204.125,84.834 205.781 M166.091 212.828 C 173.364 216.262,173.454 226.636,166.241 230.256 C 159.909 233.435,152.308 228.755,152.308 221.678 C 152.308 214.406,159.564 209.747,166.091 212.828 M187.420 213.041 C 185.723 214.770,184.487 214.639,200.733 214.462 L 214.851 214.308 213.433 213.000 L 212.014 211.692 200.379 211.692 L 188.744 211.692 187.420 213.041 M242.377 212.958 C 248.062 215.686,249.537 223.310,245.293 228.035 C 241.065 232.743,233.570 232.219,230.046 226.970 C 224.491 218.695,233.351 208.628,242.377 212.958 M219.692 226.923 L 219.692 228.308 200.000 228.308 L 180.308 228.308 180.308 226.923 L 180.308 225.538 200.000 225.538 L 219.692 225.538 219.692 226.923 M219.692 232.462 L 219.692 233.846 200.000 233.846 L 180.308 233.846 180.308 232.462 L 180.308 231.077 200.000 231.077 L 219.692 231.077 219.692 232.462 M151.385 242.308 C 151.385 243.294,151.509 243.692,151.819 243.692 C 152.057 243.692,154.480 245.929,157.203 248.664 C 161.681 253.160,162.365 254.050,162.190 255.154 C 162.155 255.378,168.495 255.493,175.077 255.387 C 180.818 255.296,181.538 254.273,181.538 246.211 L 181.538 240.923 166.462 240.923 L 151.385 240.923 151.385 242.308 M218.462 246.211 C 218.462 255.731,217.970 255.431,233.571 255.410 C 249.236 255.389,248.407 255.868,248.557 246.748 L 248.653 240.923 233.557 240.923 L 218.462 240.923 218.462 246.211 M151.387 248.241 C 151.383 254.169,152.468 255.385,157.764 255.385 C 161.958 255.385,161.959 255.388,156.156 249.558 L 151.390 244.769 151.387 248.241 " stroke="none" fill="#241d24" fill-rule="evenodd"></path><path id="path1" d="M0.000 200.000 L 0.000 400.000 200.000 400.000 L 400.000 400.000 400.000 200.000 L 400.000 0.000 200.000 0.000 L 0.000 0.000 0.000 200.000 M214.000 68.757 C 234.674 71.199,256.179 79.747,271.846 91.749 C 272.692 92.398,273.523 93.034,273.692 93.163 C 313.849 123.823,330.154 178.591,313.569 227.099 C 303.242 257.299,280.853 282.460,251.899 296.401 C 249.897 297.365,248.189 298.154,248.104 298.154 C 248.019 298.154,246.971 298.583,245.775 299.108 C 217.825 311.376,180.702 310.949,151.769 298.029 C 114.357 281.323,90.006 250.319,81.662 208.769 C 78.270 191.883,80.069 167.797,86.038 150.154 C 101.749 103.721,141.686 72.650,191.385 68.195 C 194.723 67.896,209.904 68.273,214.000 68.757 M197.077 82.040 C 165.502 83.451,137.461 97.061,118.450 120.202 C 74.514 173.681,91.851 253.509,153.916 283.504 C 209.434 310.335,274.328 285.099,298.624 227.231 C 311.217 197.238,307.625 159.698,289.424 131.077 C 269.544 99.815,233.041 80.432,197.077 82.040 M208.769 121.677 C 220.133 123.326,239.090 126.050,243.499 126.667 C 245.677 126.971,247.506 127.361,247.564 127.533 C 247.621 127.705,248.234 132.138,248.925 137.385 C 249.616 142.631,250.449 148.862,250.775 151.231 C 251.102 153.600,251.927 159.692,252.609 164.769 L 253.849 174.000 253.848 203.093 L 253.846 232.187 253.053 233.779 C 252.160 235.571,250.912 236.752,249.024 237.591 C 247.789 238.140,245.909 238.158,199.632 238.081 L 151.524 238.000 149.951 236.991 C 148.242 235.893,146.927 234.240,146.454 232.591 C 145.941 230.800,146.072 174.697,146.599 170.769 C 146.838 168.992,147.670 162.762,148.448 156.923 C 149.227 151.085,150.075 144.854,150.334 143.077 C 150.849 139.540,151.499 134.660,152.045 130.226 C 152.352 127.726,152.475 127.356,153.044 127.226 C 153.401 127.144,157.085 126.593,161.231 126.002 C 165.377 125.411,171.608 124.507,175.077 123.994 C 178.546 123.482,184.777 122.566,188.923 121.960 C 193.069 121.354,197.154 120.752,198.000 120.622 C 199.787 120.348,199.249 120.296,208.769 121.677 M194.462 127.270 C 191.838 127.673,184.431 128.764,178.000 129.693 C 160.339 132.246,158.078 132.588,157.933 132.734 C 157.859 132.808,157.325 136.446,156.746 140.819 C 155.008 153.945,153.245 166.972,152.604 171.425 C 152.272 173.731,152.000 176.535,152.000 177.655 L 152.000 179.692 200.000 179.692 L 248.000 179.692 248.000 177.748 C 248.000 176.678,247.439 171.659,246.754 166.594 C 246.069 161.529,245.169 154.754,244.754 151.538 C 244.339 148.323,243.792 144.308,243.538 142.615 C 243.284 140.923,242.865 138.024,242.608 136.172 C 242.046 132.136,242.541 132.650,238.718 132.140 C 236.969 131.907,233.669 131.430,231.385 131.079 C 229.100 130.729,225.292 130.162,222.923 129.819 C 220.554 129.477,214.394 128.581,209.234 127.829 C 204.075 127.077,199.713 126.478,199.542 126.499 C 199.371 126.519,197.085 126.866,194.462 127.270 M180.308 210.310 L 180.308 211.389 199.899 211.310 L 219.491 211.231 219.537 210.231 L 219.584 209.231 199.946 209.231 L 180.308 209.231 180.308 210.310 M158.567 212.624 C 148.721 216.527,151.422 230.917,162.000 230.917 C 174.302 230.917,174.616 212.705,162.325 212.101 C 160.672 212.020,159.775 212.145,158.567 212.624 M235.077 212.492 C 226.899 215.463,226.287 226.530,234.096 230.238 C 240.238 233.155,247.513 228.444,247.532 221.538 C 247.550 215.101,240.997 210.341,235.077 212.492 M180.308 215.844 L 180.308 216.923 181.769 216.926 C 220.091 216.998,219.833 217.007,219.641 215.651 L 219.538 214.923 199.923 214.844 L 180.308 214.765 180.308 215.844 M180.361 221.387 L 180.288 222.466 199.913 222.387 L 219.538 222.308 219.569 221.308 L 219.600 220.308 200.017 220.308 L 180.433 220.308 180.361 221.387 M180.308 226.923 L 180.308 228.005 199.921 227.925 L 219.535 227.846 219.536 226.923 L 219.538 226.000 199.923 225.921 L 180.308 225.842 180.308 226.923 M180.479 232.231 C 180.520 232.696,180.568 233.181,180.585 233.308 C 180.602 233.435,189.408 233.538,200.154 233.538 L 219.692 233.538 219.692 232.462 L 219.692 231.385 200.048 231.385 L 180.403 231.385 180.479 232.231 M181.538 246.846 C 181.298 256.104,182.006 255.692,166.329 255.692 C 150.869 255.692,151.289 255.945,151.145 246.538 L 151.059 240.923 166.376 240.923 L 181.692 240.922 181.538 246.846 M248.916 246.231 C 248.909 252.245,248.597 253.467,246.728 254.800 L 245.692 255.538 233.670 255.538 L 221.647 255.538 220.542 254.781 C 218.660 253.492,218.462 252.696,218.462 246.451 L 218.462 240.923 233.692 240.923 L 248.923 240.923 248.916 246.231 " stroke="none" fill="#ffffff" fill-rule="evenodd"></path><path id="path2" d="M157.327 179.923 C 160.173 179.973,164.742 179.973,167.481 179.922 C 170.220 179.871,167.892 179.830,162.308 179.830 C 156.723 179.830,154.482 179.872,157.327 179.923 M203.769 179.922 C 206.265 179.974,210.350 179.974,212.846 179.922 C 215.342 179.871,213.300 179.828,208.308 179.828 C 203.315 179.828,201.273 179.871,203.769 179.922 M223.167 179.921 C 224.316 179.980,226.116 179.980,227.167 179.920 C 228.217 179.860,227.277 179.811,225.077 179.812 C 222.877 179.812,222.017 179.861,223.167 179.921 M186.538 225.769 C 189.035 225.820,193.119 225.820,195.615 225.769 C 198.112 225.717,196.069 225.675,191.077 225.675 C 186.085 225.675,184.042 225.717,186.538 225.769 M185.462 228.230 C 188.212 228.281,192.712 228.281,195.462 228.230 C 198.212 228.179,195.962 228.137,190.462 228.137 C 184.962 228.137,182.712 228.179,185.462 228.230 M205.788 228.230 C 208.379 228.282,212.533 228.282,215.019 228.230 C 217.505 228.178,215.385 228.136,210.308 228.136 C 205.231 228.136,203.197 228.179,205.788 228.230 M274.769 263.231 C 274.022 263.992,273.480 264.615,273.564 264.615 C 273.649 264.615,274.330 263.992,275.077 263.231 C 275.824 262.469,276.367 261.846,276.282 261.846 C 276.197 261.846,275.517 262.469,274.769 263.231 " stroke="none" fill="#767172" fill-rule="evenodd"></path><path id="path3" d="M196.231 82.069 C 196.781 82.137,197.681 82.137,198.231 82.069 C 198.781 82.000,198.331 81.945,197.231 81.945 C 196.131 81.945,195.681 82.000,196.231 82.069 M203.308 82.063 C 203.688 82.137,204.312 82.137,204.692 82.063 C 205.073 81.990,204.762 81.930,204.000 81.930 C 203.238 81.930,202.927 81.990,203.308 82.063 M118.909 99.462 L 117.692 100.769 119.000 99.553 C 120.216 98.422,120.449 98.154,120.216 98.154 C 120.166 98.154,119.578 98.742,118.909 99.462 M271.385 109.692 C 271.959 110.285,272.498 110.769,272.582 110.769 C 272.667 110.769,272.266 110.285,271.692 109.692 C 271.118 109.100,270.579 108.615,270.495 108.615 C 270.410 108.615,270.811 109.100,271.385 109.692 M128.134 109.923 L 127.231 110.923 128.231 110.019 C 128.781 109.522,129.231 109.072,129.231 109.019 C 129.231 108.782,128.977 108.991,128.134 109.923 M121.830 116.231 L 120.769 117.385 121.923 116.324 C 122.558 115.741,123.077 115.222,123.077 115.170 C 123.077 114.935,122.817 115.157,121.830 116.231 M180.026 179.769 C 180.096 179.812,180.569 180.192,181.077 180.615 L 182.000 181.385 181.254 180.538 C 180.844 180.073,180.371 179.692,180.203 179.692 C 180.035 179.692,179.955 179.727,180.026 179.769 M80.071 181.538 C 80.071 182.131,80.135 182.373,80.212 182.077 C 80.289 181.781,80.289 181.296,80.212 181.000 C 80.135 180.704,80.071 180.946,80.071 181.538 M305.918 182.769 C 305.918 183.362,305.981 183.604,306.058 183.308 C 306.136 183.012,306.136 182.527,306.058 182.231 C 305.981 181.935,305.918 182.177,305.918 182.769 M305.918 193.538 C 305.918 194.131,305.981 194.373,306.058 194.077 C 306.136 193.781,306.136 193.296,306.058 193.000 C 305.981 192.704,305.918 192.946,305.918 193.538 M80.037 194.846 C 80.114 194.888,83.771 198.454,88.164 202.769 C 92.557 207.085,94.360 208.787,92.170 206.551 L 88.189 202.488 88.787 201.782 L 89.385 201.077 88.679 201.675 L 87.974 202.273 84.213 198.521 C 82.145 196.457,80.328 194.769,80.175 194.769 C 80.022 194.769,79.960 194.804,80.037 194.846 M199.846 211.385 L 180.154 211.545 199.923 211.619 C 212.946 211.667,219.692 211.587,219.692 211.385 C 219.692 211.215,219.658 211.110,219.615 211.150 C 219.573 211.191,210.677 211.296,199.846 211.385 M181.157 217.141 C 181.540 217.214,182.094 217.211,182.388 217.134 C 182.682 217.057,182.369 216.997,181.692 217.001 C 181.015 217.004,180.775 217.067,181.157 217.141 M191.615 217.154 C 196.227 217.201,203.773 217.201,208.385 217.154 C 212.996 217.106,209.223 217.067,200.000 217.067 C 190.777 217.067,187.004 217.106,191.615 217.154 M171.456 221.538 C 171.456 222.131,171.519 222.373,171.597 222.077 C 171.674 221.781,171.674 221.296,171.597 221.000 C 171.519 220.704,171.456 220.946,171.456 221.538 M200.000 222.462 L 180.462 222.622 199.905 222.696 C 212.615 222.744,219.414 222.663,219.538 222.462 C 219.643 222.292,219.686 222.187,219.634 222.227 C 219.581 222.268,210.746 222.373,200.000 222.462 M190.231 231.308 C 195.604 231.355,204.396 231.355,209.769 231.308 C 215.142 231.260,210.746 231.222,200.000 231.222 C 189.254 231.222,184.858 231.260,190.231 231.308 M151.172 242.615 C 151.174 243.631,151.231 244.009,151.300 243.456 C 151.368 242.903,151.367 242.072,151.297 241.610 C 151.227 241.148,151.171 241.600,151.172 242.615 M248.743 246.308 C 248.743 249.354,248.789 250.558,248.845 248.984 C 248.901 247.410,248.901 244.918,248.844 243.446 C 248.788 241.974,248.742 243.262,248.743 246.308 M151.193 248.000 C 151.193 249.946,151.243 250.742,151.304 249.769 C 151.365 248.796,151.365 247.204,151.304 246.231 C 151.243 245.258,151.193 246.054,151.193 248.000 M284.763 273.000 L 282.000 275.846 284.846 273.083 C 286.412 271.564,287.692 270.283,287.692 270.237 C 287.692 270.014,287.329 270.357,284.763 273.000 M114.769 272.769 C 115.343 273.362,115.882 273.846,115.967 273.846 C 116.051 273.846,115.651 273.362,115.077 272.769 C 114.503 272.177,113.964 271.692,113.879 271.692 C 113.795 271.692,114.195 272.177,114.769 272.769 M194.388 294.064 C 194.771 294.137,195.325 294.135,195.619 294.058 C 195.913 293.981,195.600 293.920,194.923 293.924 C 194.246 293.927,194.005 293.990,194.388 294.064 M191.769 307.904 C 192.065 307.982,192.550 307.982,192.846 307.904 C 193.142 307.827,192.900 307.764,192.308 307.764 C 191.715 307.764,191.473 307.827,191.769 307.904 M198.538 308.212 C 198.835 308.289,199.319 308.289,199.615 308.212 C 199.912 308.135,199.669 308.071,199.077 308.071 C 198.485 308.071,198.242 308.135,198.538 308.212 " stroke="none" fill="#928f90" fill-rule="evenodd"></path><path id="path4" d="M194.846 68.212 C 195.142 68.289,195.627 68.289,195.923 68.212 C 196.219 68.135,195.977 68.071,195.385 68.071 C 194.792 68.071,194.550 68.135,194.846 68.212 M155.713 126.992 C 152.930 128.090,152.813 130.186,155.385 132.818 L 157.538 135.021 157.542 133.741 C 157.545 132.639,157.744 132.256,158.973 130.980 C 160.297 129.605,160.363 129.462,159.893 128.992 C 159.423 128.522,159.292 128.578,158.066 129.781 C 156.647 131.174,156.203 131.324,155.516 130.637 C 154.821 129.942,154.989 129.447,156.308 128.308 C 157.912 126.922,157.606 126.245,155.713 126.992 M151.908 132.846 C 151.809 133.354,151.918 133.887,152.180 134.178 C 152.772 134.839,152.727 135.380,152.016 136.137 C 150.740 137.495,150.744 140.013,152.023 141.150 C 153.825 142.752,154.797 141.546,153.084 139.833 L 151.955 138.703 152.646 137.967 C 153.488 137.072,153.836 137.056,155.385 137.846 C 156.902 138.620,156.863 138.626,156.980 137.615 C 157.064 136.882,156.913 136.702,155.846 136.268 C 154.892 135.879,154.549 135.533,154.318 134.729 C 154.032 133.730,152.748 132.000,152.293 132.000 C 152.171 132.000,151.998 132.381,151.908 132.846 M245.973 138.835 L 243.485 141.385 244.027 144.923 C 244.325 146.869,244.593 149.015,244.621 149.692 C 244.673 150.920,244.675 150.918,245.283 148.958 L 245.893 146.993 245.100 145.227 C 244.004 142.785,244.033 142.679,246.485 140.151 C 248.235 138.346,248.642 137.747,248.562 137.095 C 248.467 136.332,248.318 136.432,245.973 138.835 M150.704 142.462 C 150.173 143.758,150.127 145.081,150.631 144.578 C 150.948 144.261,151.082 143.715,151.008 143.043 C 150.938 142.410,150.819 142.181,150.704 142.462 M245.025 152.204 C 245.267 153.692,251.468 160.157,251.636 159.096 C 251.778 158.190,251.493 157.810,248.010 154.274 C 244.860 151.074,244.840 151.060,245.025 152.204 M174.244 179.921 C 175.393 179.980,177.193 179.980,178.244 179.920 C 179.294 179.860,178.354 179.811,176.154 179.812 C 173.954 179.812,173.094 179.861,174.244 179.921 M188.231 179.922 C 190.304 179.975,193.696 179.975,195.769 179.922 C 197.842 179.869,196.146 179.825,192.000 179.825 C 187.854 179.825,186.158 179.869,188.231 179.922 M233.615 179.922 C 236.281 179.974,240.642 179.974,243.308 179.922 C 245.973 179.871,243.792 179.829,238.462 179.829 C 233.131 179.829,230.950 179.871,233.615 179.922 M214.613 214.151 C 214.736 214.350,209.908 214.484,200.709 214.539 L 186.615 214.622 200.846 214.695 C 213.323 214.760,215.077 214.712,215.077 214.308 C 215.077 214.054,214.930 213.846,214.751 213.846 C 214.572 213.846,214.510 213.983,214.613 214.151 M181.625 214.688 C 182.434 214.752,183.680 214.751,184.394 214.686 C 185.108 214.622,184.446 214.570,182.923 214.571 C 181.400 214.572,180.816 214.624,181.625 214.688 M216.532 214.684 C 217.078 214.752,218.047 214.753,218.685 214.686 C 219.324 214.619,218.877 214.564,217.692 214.563 C 216.508 214.561,215.985 214.616,216.532 214.684 M191.330 220.231 C 196.631 220.278,205.215 220.278,210.407 220.231 C 215.598 220.183,211.262 220.145,200.769 220.145 C 190.277 220.145,186.029 220.183,191.330 220.231 M205.615 225.769 C 208.112 225.820,212.196 225.820,214.692 225.769 C 217.188 225.717,215.146 225.675,210.154 225.675 C 205.162 225.675,203.119 225.717,205.615 225.769 M237.465 231.295 C 237.848 231.368,238.402 231.365,238.696 231.288 C 238.990 231.211,238.677 231.151,238.000 231.155 C 237.323 231.158,237.082 231.221,237.465 231.295 M190.077 233.769 C 195.535 233.816,204.465 233.816,209.923 233.769 C 215.381 233.722,210.915 233.683,200.000 233.683 C 189.085 233.683,184.619 233.722,190.077 233.769 M151.385 244.219 C 151.385 244.508,153.531 246.906,156.154 249.548 C 161.846 255.281,161.863 255.329,158.231 255.451 C 156.750 255.500,159.208 255.545,163.692 255.550 C 170.188 255.558,170.845 255.526,166.923 255.395 C 164.215 255.305,162.035 255.127,162.077 255.000 C 162.381 254.086,161.629 253.108,157.203 248.664 C 152.446 243.886,151.385 243.075,151.385 244.219 M173.625 255.611 C 174.434 255.675,175.680 255.674,176.394 255.609 C 177.108 255.545,176.446 255.493,174.923 255.494 C 173.400 255.495,172.816 255.548,173.625 255.611 M225.162 255.610 C 225.886 255.675,226.993 255.674,227.624 255.608 C 228.254 255.542,227.662 255.489,226.308 255.490 C 224.954 255.491,224.438 255.545,225.162 255.610 M232.538 255.614 C 234.612 255.668,238.004 255.668,240.077 255.614 C 242.150 255.561,240.454 255.518,236.308 255.518 C 232.162 255.518,230.465 255.561,232.538 255.614 " stroke="none" fill="#6c6c6b" fill-rule="evenodd"></path></g></svg>